<svg height="24.981" viewBox="0 0 82.897 24.981" width="82.897" xmlns="http://www.w3.org/2000/svg"><g fill-rule="evenodd"><path d="m320.716 322.921c-4.817 3.554-11.8 5.445-17.812 5.445a32.235 32.235 0 0 1 -21.759-8.3c-.451-.408-.049-.963.493-.648a43.8 43.8 0 0 0 21.771 5.776 43.313 43.313 0 0 0 16.606-3.4c.815-.344 1.498.538.701 1.127z" fill="#f90" transform="translate(-269.287 -303.384)"/><path d="m425.046 318.152c-.616-.789-4.072-.374-5.625-.188-.47.056-.543-.355-.119-.652 2.757-1.937 7.275-1.377 7.8-.729s-.139 5.183-2.722 7.345c-.4.332-.776.155-.6-.284.581-1.453 1.883-4.703 1.266-5.492z" fill="#f90" transform="translate(-371.613 -300.903)"/><g fill="#fff"><path d="m419.608 261.541v-1.882a.465.465 0 0 1 .477-.476h8.434a.47.47 0 0 1 .486.475v1.614a2.647 2.647 0 0 1 -.635 1.184l-4.37 6.236a9.359 9.359 0 0 1 4.81 1.033.861.861 0 0 1 .448.734v2.008c0 .276-.3.6-.622.43a9.712 9.712 0 0 0 -8.911.017c-.293.156-.6-.16-.6-.437v-1.907a2.269 2.269 0 0 1 .314-1.293l5.061-7.261h-4.4a.469.469 0 0 1 -.492-.475z" transform="translate(-371.691 -258.812)"/><path d="m293.5 272.6h-2.566a.484.484 0 0 1 -.459-.434v-13.168a.483.483 0 0 1 .495-.474h2.389a.483.483 0 0 1 .466.442v1.719h.048a3.385 3.385 0 0 1 3.377-2.439c1.6 0 2.61.776 3.329 2.439a3.789 3.789 0 0 1 6.515-1c.814 1.109.647 2.715.647 4.129v8.31a.484.484 0 0 1 -.495.474h-2.562a.481.481 0 0 1 -.46-.473v-6.981a16.839 16.839 0 0 0 -.072-2.466 1.337 1.337 0 0 0 -1.508-1.137 1.7 1.7 0 0 0 -1.533 1.081 7.972 7.972 0 0 0 -.239 2.522v6.98a.484.484 0 0 1 -.495.474h-2.563a.481.481 0 0 1 -.461-.473v-6.981c0-1.468.239-3.629-1.58-3.629-1.844 0-1.772 2.105-1.772 3.629v6.98a.484.484 0 0 1 -.501.476z" transform="translate(-276.349 -258.118)"/><path d="m468.8 258.245c3.808 0 5.867 3.27 5.867 7.427 0 4.017-2.275 7.2-5.867 7.2-3.736 0-5.772-3.271-5.772-7.343.001-4.097 2.061-7.284 5.772-7.284zm.023 2.688c-1.892 0-2.011 2.576-2.011 4.184s-.024 5.043 1.988 5.043c1.988 0 2.084-2.771 2.084-4.461a12.177 12.177 0 0 0 -.383-3.492 1.606 1.606 0 0 0 -1.677-1.274z" transform="translate(-404.227 -258.118)"/><path d="m518.415 272.6h-2.556a.482.482 0 0 1 -.46-.473v-13.173a.486.486 0 0 1 .493-.43h2.38a.488.488 0 0 1 .456.369v2.014h.048c.719-1.8 1.724-2.66 3.5-2.66a3.364 3.364 0 0 1 2.994 1.552c.671 1.053.671 2.826.671 4.1v8.286a.487.487 0 0 1 -.492.414h-2.572a.484.484 0 0 1 -.457-.414v-7.15c0-1.441.168-3.547-1.6-3.547a1.679 1.679 0 0 0 -1.485 1.053 5.857 5.857 0 0 0 -.408 2.495v7.09a.491.491 0 0 1 -.512.474z" transform="translate(-443.035 -258.118)"/><path d="m373.376 265.947a5.032 5.032 0 0 1 -.48 2.722 2.085 2.085 0 0 1 -1.776 1.166c-.984 0-1.56-.75-1.56-1.861 0-2.185 1.96-2.582 3.816-2.582zm2.586 6.256a.53.53 0 0 1 -.606.06 6.265 6.265 0 0 1 -1.471-1.709 5.085 5.085 0 0 1 -4.23 1.865 3.642 3.642 0 0 1 -3.84-4 4.358 4.358 0 0 1 2.736-4.193 17.747 17.747 0 0 1 4.824-.889v-.337a3.284 3.284 0 0 0 -.312-1.86 1.715 1.715 0 0 0 -1.44-.667 1.953 1.953 0 0 0 -2.062 1.54.543.543 0 0 1 -.446.472l-2.487-.27a.452.452 0 0 1 -.383-.537c.572-3.017 3.3-3.928 5.738-3.928a5.816 5.816 0 0 1 3.864 1.278c1.249 1.166 1.128 2.722 1.128 4.416v4a3.5 3.5 0 0 0 .968 2.377.484.484 0 0 1 -.008.682c-.524.439-1.455 1.248-1.967 1.7z" transform="translate(-332.181 -257.754)"/><path d="m243.462 265.947a5.034 5.034 0 0 1 -.48 2.722 2.084 2.084 0 0 1 -1.776 1.166c-.984 0-1.56-.75-1.56-1.861 0-2.185 1.96-2.582 3.816-2.582zm2.587 6.256a.531.531 0 0 1 -.606.06 6.242 6.242 0 0 1 -1.471-1.709 5.086 5.086 0 0 1 -4.23 1.865 3.642 3.642 0 0 1 -3.84-4 4.357 4.357 0 0 1 2.736-4.193 17.747 17.747 0 0 1 4.824-.889v-.337a3.286 3.286 0 0 0 -.311-1.86 1.715 1.715 0 0 0 -1.44-.667 1.953 1.953 0 0 0 -2.062 1.54.543.543 0 0 1 -.446.472l-2.487-.27a.452.452 0 0 1 -.383-.537c.571-3.017 3.3-3.928 5.738-3.928a5.818 5.818 0 0 1 3.865 1.278c1.248 1.166 1.128 2.722 1.128 4.416v4a3.5 3.5 0 0 0 .968 2.377.484.484 0 0 1 -.008.682c-.524.439-1.456 1.248-1.968 1.7z" transform="translate(-235.902 -257.754)"/></g></g></svg>