<svg xmlns="http://www.w3.org/2000/svg" width="29.692" height="19.096" viewBox="0 0 29.692 19.096">
  <g id="Group_256" data-name="Group 256" transform="translate(29.693 19.094) rotate(180)">
    <g id="Group_96" data-name="Group 96" transform="translate(0 0)">
      <path id="Path_703" data-name="Path 703" d="M1.86,0A1.868,1.868,0,1,1,0,1.868,1.861,1.861,0,0,1,1.86,0Z" transform="matrix(0.16, 0.987, -0.987, 0.16, 3.689, 10.101)" fill="#fff"/>
      <path id="Path_704" data-name="Path 704" d="M1.868,0A1.86,1.86,0,1,1,0,1.86,1.862,1.862,0,0,1,1.868,0Z" transform="matrix(0.993, 0.122, -0.122, 0.993, 0.517, 5.163)" fill="#fff"/>
      <path id="Path_705" data-name="Path 705" d="M1.864,0a1.854,1.854,0,0,1,1.86,1.86A1.874,1.874,0,0,1,1.856,3.724,1.854,1.854,0,0,1,0,1.864,1.874,1.874,0,0,1,1.864,0Z" transform="translate(7.223 9.605) rotate(45)" fill="#fff"/>
      <path id="Path_706" data-name="Path 706" d="M1.868,0A1.86,1.86,0,1,1,0,1.86,1.86,1.86,0,0,1,1.868,0Z" transform="translate(5.742 5.058) rotate(10.901)" fill="#fff"/>
      <path id="Path_707" data-name="Path 707" d="M1.868,0A1.86,1.86,0,1,1,0,1.86,1.862,1.862,0,0,1,1.868,0Z" transform="matrix(0.993, 0.122, -0.122, 0.993, 10.648, 10.162)" fill="#fff"/>
      <path id="Path_708" data-name="Path 708" d="M1.866,0a1.862,1.862,0,1,1-.008,3.725A1.862,1.862,0,1,1,1.866,0Z" transform="translate(11.667 4.676) rotate(31.717)" fill="#fff"/>
      <path id="Path_348" data-name="Path 348" d="M3.737,1.86A1.868,1.868,0,1,1,1.868,0,1.865,1.865,0,0,1,3.737,1.86Z" transform="translate(15.485 15.373)" fill="#fff"/>
      <ellipse id="Ellipse_199" data-name="Ellipse 199" cx="1.868" cy="1.859" rx="1.868" ry="1.859" transform="translate(15.678 10.201) rotate(5.655)" fill="#fff"/>
      <path id="Path_710" data-name="Path 710" d="M1.868,0A1.86,1.86,0,1,1,0,1.86,1.86,1.86,0,0,1,1.868,0Z" transform="translate(15.965 4.999) rotate(13.282)" fill="#fff"/>
      <path id="Path_711" data-name="Path 711" d="M1.868,0A1.86,1.86,0,1,1,0,1.86,1.86,1.86,0,0,1,1.868,0Z" transform="translate(15.965 0) rotate(13.282)" fill="#fff"/>
      <ellipse id="Ellipse_202" data-name="Ellipse 202" cx="1.868" cy="1.859" rx="1.868" ry="1.859" transform="translate(20.726 10.228) rotate(4.731)" fill="#fff"/>
      <path id="Path_713" data-name="Path 713" d="M1.868,0A1.86,1.86,0,1,1,0,1.86,1.86,1.86,0,0,1,1.868,0Z" transform="translate(20.952 5.058) rotate(10.901)" fill="#fff"/>
      <path id="Path_714" data-name="Path 714" d="M1.862,0a1.866,1.866,0,0,1-.008,3.732A1.866,1.866,0,0,1,1.862,0Z" transform="matrix(0.526, 0.851, -0.851, 0.526, 23.041, 4.676)" fill="#fff"/>
      <path id="Path_715" data-name="Path 715" d="M1.862,0a1.866,1.866,0,0,1-.008,3.732A1.866,1.866,0,0,1,1.862,0Z" transform="matrix(0.526, 0.851, -0.851, 0.526, 27.734, 7.071)" fill="#fff"/>
    </g>
  </g>
</svg>
