<svg xmlns="http://www.w3.org/2000/svg" width="26.66" height="17.218" viewBox="0 0 26.66 17.218">
  <g id="Group_403" data-name="Group 403" transform="translate(26.66 17.218) rotate(180)">
    <g id="Group_96" data-name="Group 96" transform="translate(0 0)">
      <ellipse id="Ellipse_193" data-name="Ellipse 193" cx="1.677" cy="1.677" rx="1.677" ry="1.677" transform="matrix(-0.16, 0.987, -0.987, -0.16, 26.66, 9.646)" fill="#fff"/>
      <ellipse id="Ellipse_194" data-name="Ellipse 194" cx="1.677" cy="1.677" rx="1.677" ry="1.677" transform="matrix(-0.993, 0.122, -0.122, -0.993, 26.605, 7.985)" fill="#fff"/>
      <circle id="Ellipse_195" data-name="Ellipse 195" cx="1.677" cy="1.677" r="1.677" transform="translate(22.547 11.033) rotate(135)" fill="#fff"/>
      <ellipse id="Ellipse_196" data-name="Ellipse 196" cx="1.677" cy="1.677" rx="1.677" ry="1.677" transform="translate(22.14 7.855) rotate(169.099)" fill="#fff"/>
      <ellipse id="Ellipse_197" data-name="Ellipse 197" cx="1.677" cy="1.677" rx="1.677" ry="1.677" transform="matrix(-0.993, 0.122, -0.122, -0.993, 17.511, 12.493)" fill="#fff"/>
      <ellipse id="Ellipse_198" data-name="Ellipse 198" cx="1.677" cy="1.677" rx="1.677" ry="1.677" transform="translate(17.95 7.07) rotate(148.283)" fill="#fff"/>
      <path id="Path_348" data-name="Path 348" d="M0,1.678A1.677,1.677,0,1,0,1.677,0,1.678,1.678,0,0,0,0,1.678Z" transform="translate(9.404 13.863)" fill="#fff"/>
      <ellipse id="Ellipse_199" data-name="Ellipse 199" cx="1.677" cy="1.677" rx="1.677" ry="1.677" transform="translate(12.916 12.537) rotate(174.345)" fill="#fff"/>
      <ellipse id="Ellipse_200" data-name="Ellipse 200" cx="1.677" cy="1.677" rx="1.677" ry="1.677" transform="translate(13.099 7.772) rotate(166.718)" fill="#fff"/>
      <ellipse id="Ellipse_201" data-name="Ellipse 201" cx="1.677" cy="1.677" rx="1.677" ry="1.677" transform="translate(13.099 3.265) rotate(166.718)" fill="#fff"/>
      <ellipse id="Ellipse_202" data-name="Ellipse 202" cx="1.677" cy="1.677" rx="1.677" ry="1.677" transform="translate(8.331 12.566) rotate(175.269)" fill="#fff"/>
      <ellipse id="Ellipse_203" data-name="Ellipse 203" cx="1.677" cy="1.677" rx="1.677" ry="1.677" transform="translate(8.486 7.855) rotate(169.099)" fill="#fff"/>
      <ellipse id="Ellipse_204" data-name="Ellipse 204" cx="1.677" cy="1.677" rx="1.677" ry="1.677" transform="matrix(-0.526, 0.851, -0.851, -0.526, 8.83, 5.98)" fill="#fff"/>
      <ellipse id="Ellipse_205" data-name="Ellipse 205" cx="1.677" cy="1.677" rx="1.677" ry="1.677" transform="matrix(-0.526, 0.851, -0.851, -0.526, 4.617, 8.14)" fill="#fff"/>
    </g>
  </g>
</svg>
