<svg xmlns="http://www.w3.org/2000/svg" width="97.569" height="68.742" viewBox="0 0 97.569 68.742">
  <g id="Group_473" data-name="Group 473" transform="translate(-8 -34)">
    <path id="Path_2771" data-name="Path 2771" d="M103.53,44.734A12.259,12.259,0,0,0,94.9,36.052C87.3,34,56.785,34,56.785,34s-30.511,0-38.12,2.052a12.259,12.259,0,0,0-8.626,8.682C8,52.392,8,68.371,8,68.371S8,84.35,10.039,92.008a12.259,12.259,0,0,0,8.626,8.682c7.609,2.052,38.12,2.052,38.12,2.052s30.511,0,38.12-2.052a12.259,12.259,0,0,0,8.626-8.682c2.039-7.658,2.039-23.637,2.039-23.637S105.569,52.392,103.53,44.734Z" transform="translate(0 0)" fill="#de0000"/>
    <path id="Path_2772" data-name="Path 2772" d="M78,98.846V69.831l25.5,14.508Z" transform="translate(-31.194 -15.967)" fill="#fefefe"/>
  </g>
</svg>
