<svg xmlns="http://www.w3.org/2000/svg" width="17.409" height="26.956" viewBox="0 0 17.409 26.956">
  <g id="Group_427" data-name="Group 427" transform="translate(17.409) rotate(90)">
    <g id="Group_96" data-name="Group 96" transform="translate(0 0)">
      <ellipse id="Ellipse_193" data-name="Ellipse 193" cx="1.696" cy="1.696" rx="1.696" ry="1.696" transform="matrix(-0.16, 0.987, -0.987, -0.16, 26.956, 9.753)" fill="#fff"/>
      <ellipse id="Ellipse_194" data-name="Ellipse 194" cx="1.696" cy="1.696" rx="1.696" ry="1.696" transform="translate(26.901 8.074) rotate(172.982)" fill="#fff"/>
      <circle id="Ellipse_195" data-name="Ellipse 195" cx="1.696" cy="1.696" r="1.696" transform="translate(22.798 11.156) rotate(135)" fill="#fff"/>
      <ellipse id="Ellipse_196" data-name="Ellipse 196" cx="1.696" cy="1.696" rx="1.696" ry="1.696" transform="matrix(-0.982, 0.189, -0.189, -0.982, 22.386, 7.942)" fill="#fff"/>
      <ellipse id="Ellipse_197" data-name="Ellipse 197" cx="1.696" cy="1.696" rx="1.696" ry="1.696" transform="matrix(-0.993, 0.122, -0.122, -0.993, 17.706, 12.632)" fill="#fff"/>
      <ellipse id="Ellipse_198" data-name="Ellipse 198" cx="1.696" cy="1.696" rx="1.696" ry="1.696" transform="translate(18.15 7.149) rotate(148.283)" fill="#fff"/>
      <path id="Path_348" data-name="Path 348" d="M0,1.7A1.7,1.7,0,1,0,1.7,0,1.7,1.7,0,0,0,0,1.7Z" transform="translate(9.509 14.017)" fill="#fff"/>
      <ellipse id="Ellipse_199" data-name="Ellipse 199" cx="1.696" cy="1.696" rx="1.696" ry="1.696" transform="translate(13.06 12.676) rotate(174.345)" fill="#fff"/>
      <ellipse id="Ellipse_200" data-name="Ellipse 200" cx="1.696" cy="1.696" rx="1.696" ry="1.696" transform="translate(13.245 7.859) rotate(166.718)" fill="#fff"/>
      <ellipse id="Ellipse_201" data-name="Ellipse 201" cx="1.696" cy="1.696" rx="1.696" ry="1.696" transform="translate(13.245 3.301) rotate(166.718)" fill="#fff"/>
      <ellipse id="Ellipse_202" data-name="Ellipse 202" cx="1.696" cy="1.696" rx="1.696" ry="1.696" transform="translate(8.424 12.706) rotate(175.269)" fill="#fff"/>
      <ellipse id="Ellipse_203" data-name="Ellipse 203" cx="1.696" cy="1.696" rx="1.696" ry="1.696" transform="translate(8.58 7.942) rotate(169.099)" fill="#fff"/>
      <ellipse id="Ellipse_204" data-name="Ellipse 204" cx="1.696" cy="1.696" rx="1.696" ry="1.696" transform="matrix(-0.526, 0.851, -0.851, -0.526, 8.928, 6.047)" fill="#fff"/>
      <ellipse id="Ellipse_205" data-name="Ellipse 205" cx="1.696" cy="1.696" rx="1.696" ry="1.696" transform="matrix(-0.526, 0.851, -0.851, -0.526, 4.668, 8.23)" fill="#fff"/>
    </g>
  </g>
</svg>
